HIERARCHY
ROOT joint_Root
{
	OFFSET 0.0 0.0 0.0
	CHANNELS 6 Xposition Yposition Zposition Zrotation Xrotation Yrotation 
	JOINT Hips
	{
		OFFSET 4.5925 91.4895 -427.239
		CHANNELS 6 Xposition Yposition Zposition Zrotation Xrotation Yrotation 
		JOINT Spine
		{
			OFFSET 15.7357 0.0 0.0
			CHANNELS 6 Xposition Yposition Zposition Zrotation Xrotation Yrotation 
			JOINT Chest
			{
				OFFSET 8.98455 -0.406207 0.0
				CHANNELS 6 Xposition Yposition Zposition Zrotation Xrotation Yrotation 
				JOINT Neck
				{
					OFFSET 16.3773 0.0 0.0
					CHANNELS 6 Xposition Yposition Zposition Zrotation Xrotation Yrotation 
					JOINT Head
					{
						OFFSET 6.45672 0.0 0.0
						CHANNELS 6 Xposition Yposition Zposition Zrotation Xrotation Yrotation 
						End Site
						{
							OFFSET 0.0 0.0 0.0
						}
					}
				}
				JOINT Shoulder_L
				{
					OFFSET 12.9942 -0.242716 4.98039
					CHANNELS 6 Xposition Yposition Zposition Zrotation Xrotation Yrotation 
					JOINT UpperArm_L
					{
						OFFSET 5.34809 0.0 0.0
						CHANNELS 6 Xposition Yposition Zposition Zrotation Xrotation Yrotation 
						JOINT LowerArm_L
						{
							OFFSET 24.3286 1.87007e-05 0.0
							CHANNELS 6 Xposition Yposition Zposition Zrotation Xrotation Yrotation 
							JOINT Hand_L
							{
								OFFSET 22.2916 0.0 0.0
								CHANNELS 6 Xposition Yposition Zposition Zrotation Xrotation Yrotation 
								End Site
								{
									OFFSET 0.0 0.0 0.0
								}
							}
						}
					}
				}
				JOINT Shoulder_R
				{
					OFFSET 12.9945 -0.242716 -4.98039
					CHANNELS 6 Xposition Yposition Zposition Zrotation Xrotation Yrotation 
					JOINT UpperArm_R
					{
						OFFSET -5.34813 0.0 0.0
						CHANNELS 6 Xposition Yposition Zposition Zrotation Xrotation Yrotation 
						JOINT LowerArm_R
						{
							OFFSET -24.3289 0.000322201 0.0
							CHANNELS 6 Xposition Yposition Zposition Zrotation Xrotation Yrotation 
							JOINT Hand_R
							{
								OFFSET -22.2915 -0.000108084 0.0
								CHANNELS 6 Xposition Yposition Zposition Zrotation Xrotation Yrotation 
								End Site
								{
									OFFSET 0.0 0.0 0.0
								}
							}
						}
					}
				}
			}
		}
		JOINT UpperLeg_L
		{
			OFFSET -2.19248 -6.46944 0.0
			CHANNELS 6 Xposition Yposition Zposition Zrotation Xrotation Yrotation 
			JOINT LowerLeg_L
			{
				OFFSET 39.0811 0.0 -1.23785e-05
				CHANNELS 6 Xposition Yposition Zposition Zrotation Xrotation Yrotation 
				JOINT Foot_L
				{
					OFFSET 40.9854 0.0 -1.26872e-05
					CHANNELS 6 Xposition Yposition Zposition Zrotation Xrotation Yrotation 
					JOINT Toes_L
					{
						OFFSET 11.7543 0.0 0.0
						CHANNELS 6 Xposition Yposition Zposition Zrotation Xrotation Yrotation 
						End Site
						{
							OFFSET 0.0 0.0 0.0
						}
					}
				}
			}
		}
		JOINT UpperLeg_R
		{
			OFFSET -2.19251 6.46944 0.0
			CHANNELS 6 Xposition Yposition Zposition Zrotation Xrotation Yrotation 
			JOINT LowerLeg_R
			{
				OFFSET -39.0811 -0.00228153 -0.0401928
				CHANNELS 6 Xposition Yposition Zposition Zrotation Xrotation Yrotation 
				JOINT Foot_R
				{
					OFFSET -40.9854 0.0 0.0
					CHANNELS 6 Xposition Yposition Zposition Zrotation Xrotation Yrotation 
					JOINT Toes_R
					{
						OFFSET -11.7543 0.0 0.0
						CHANNELS 6 Xposition Yposition Zposition Zrotation Xrotation Yrotation 
						End Site
						{
							OFFSET 0.0 0.0 0.0
						}
					}
				}
			}
		}
	}
}
MOTION
Frames:	6
Frame Time:	0.0333333
0.000000 0.000000 0.000000 0.000000 0.000000 -0.000000 -5.445230 83.082300 0.011597 86.979200 2.805050 11.050000 15.735700 0.000005 -0.000001 82.263100 81.117800 -82.169600 8.984550 -0.406207 -0.000000 9.844850 -2.375190 0.391480 16.377300 -0.000001 -0.000001 -1.064060 -4.045420 0.800975 6.456720 -0.000001 -0.000000 -4.674890 -1.380350 -3.768520 12.994200 -0.242716 4.980390 -91.250100 4.364930 -74.001200 5.348090 -0.000007 -0.000001 -61.131400 35.378900 -18.429300 24.328600 0.000019 0.000005 7.591230 18.558700 -22.722800 22.291600 -0.000001 0.000005 13.044100 5.160720 3.688800 12.994500 -0.242716 -4.980390 88.054000 9.910340 -78.832900 -5.348130 -0.000001 -0.000004 -58.923100 34.106100 -10.766500 -24.328900 0.000322 -0.000009 0.752480 1.997980 -20.743300 -22.291500 -0.000108 -0.000004 7.299250 5.321030 -0.411554 -2.192480 -6.469440 -0.000000 -169.027000 -5.665020 -14.225800 39.081100 -0.000007 -0.000012 -0.467108 0.275786 59.443000 40.985400 -0.000006 -0.000013 -1.781480 7.258350 -84.186200 11.754300 -0.000000 0.000003 -0.000154 -0.001484 -16.633900 -2.192510 6.469440 -0.000001 -177.690000 16.937700 167.847000 -39.081100 -0.002282 -0.040193 0.107131 -0.063878 58.421900 -40.985400 0.000008 0.000006 9.148820 -0.677377 -85.332400 -11.754300 -0.000006 -0.000006 -0.324561 -0.401791 -17.209500
0.000000 0.000000 0.000000 0.000000 0.000000 -0.000000 -5.677180 85.259200 0.482405 87.440400 3.106460 9.737400 15.735700 0.000005 -0.000001 85.051800 82.476300 -86.021300 8.984550 -0.406207 -0.000000 7.216390 -1.288590 -1.855780 16.377300 -0.000001 -0.000001 0.471480 -3.865280 0.671743 6.456720 -0.000001 -0.000000 -3.210450 -2.538860 -2.493220 12.994200 -0.242716 4.980390 -91.235400 3.994650 -72.798100 5.348090 -0.000007 -0.000001 -63.080900 33.447100 -16.806200 24.328600 0.000019 0.000005 7.355830 20.064700 -20.620200 22.291600 -0.000001 0.000005 12.000900 5.118050 4.698300 12.994500 -0.242716 -4.980390 88.430400 8.048870 -78.925700 -5.348130 -0.000001 -0.000004 -56.522000 40.737200 -14.106300 -24.328900 0.000322 -0.000009 2.792710 7.450190 -20.618300 -22.291500 -0.000108 -0.000004 -10.857200 5.292400 0.331603 -2.192480 -6.469440 -0.000000 -169.923000 -4.683720 -11.882400 39.081100 -0.000007 -0.000012 -0.418008 0.320092 52.557700 40.985400 -0.000006 -0.000013 -2.684780 6.211670 -80.999100 11.754300 -0.000000 0.000003 -0.000109 -0.001108 -16.620000 -2.192510 6.469440 -0.000001 -177.873000 17.220900 170.043000 -39.081100 -0.002282 -0.040193 0.089005 -0.067339 51.862200 -40.985400 0.000008 0.000006 9.143890 0.127087 -82.127500 -11.754300 -0.000006 -0.000006 -0.354677 -0.439773 -17.433600
0.000000 0.000000 0.000000 0.000000 0.000000 -0.000000 -5.706880 87.725100 0.785398 88.048400 2.192200 7.727600 15.735700 0.000005 -0.000001 88.193200 83.999900 -90.272300 8.984550 -0.406207 -0.000000 4.225880 -0.313605 -4.141860 16.377300 -0.000001 -0.000001 2.379290 -3.482390 0.934544 6.456720 -0.000001 -0.000000 -1.858850 -2.870550 -1.366130 12.994200 -0.242716 4.980390 -91.067000 3.133470 -71.179900 5.348090 -0.000007 -0.000001 -66.052200 29.369700 -13.002600 24.328600 0.000019 0.000005 7.568080 19.750000 -21.464200 22.291600 -0.000001 0.000005 11.301400 5.127320 4.478250 12.994500 -0.242716 -4.980390 88.916600 5.190710 -78.191600 -5.348130 -0.000001 -0.000004 -48.703100 39.538600 -23.023900 -24.328900 0.000322 -0.000009 2.134540 4.686260 -24.557900 -22.291500 -0.000108 -0.000004 -21.007600 5.170760 3.432920 -2.192480 -6.469440 -0.000000 -170.975000 -5.044020 -9.031670 39.081100 -0.000007 -0.000012 -0.331419 0.347321 43.658600 40.985400 -0.000006 -0.000013 -3.382570 4.984150 -76.821100 11.754300 -0.000000 0.000003 -0.000072 -0.000772 -16.607400 -2.192510 6.469440 -0.000001 -178.111000 16.885400 172.047000 -39.081100 -0.002282 -0.040193 0.067284 -0.066719 43.816000 -40.985400 0.000008 0.000006 9.092690 1.900770 -77.594600 -11.754300 -0.000006 -0.000006 -0.555109 -0.680665 -17.894400
0.000000 0.000000 0.000000 0.000000 0.000000 -0.000000 -5.379690 89.691800 0.908922 88.490700 0.540694 6.054950 15.735700 0.000005 -0.000001 91.275900 85.256100 -94.075900 8.984550 -0.406207 -0.000000 1.734360 0.358358 -5.600260 16.377300 -0.000001 -0.000001 4.071990 -3.232400 0.925065 6.456720 -0.000001 -0.000000 -0.719795 -2.751630 -0.944803 12.994200 -0.242716 4.980390 -90.786400 2.141250 -69.823500 5.348090 -0.000007 -0.000001 -69.109100 24.711600 -8.141230 24.328600 0.000019 0.000005 7.637800 17.363500 -24.199900 22.291600 -0.000001 0.000005 10.278800 5.169730 3.460900 12.994500 -0.242716 -4.980390 89.426700 2.702760 -78.020800 -5.348130 -0.000001 -0.000004 -38.854100 28.690300 -33.729100 -24.328900 0.000322 -0.000009 1.426170 2.684750 -28.021700 -22.291500 -0.000108 -0.000004 -10.006200 5.225750 2.254410 -2.192480 -6.469440 -0.000000 -171.857000 -6.655250 -6.057820 39.081100 -0.000007 -0.000012 -0.249029 0.352411 35.247200 40.985400 -0.000006 -0.000013 -3.520520 4.163730 -72.848700 11.754300 -0.000000 0.000003 -0.000043 -0.000498 -16.596900 -2.192510 6.469440 -0.000001 -178.696000 17.036600 173.913000 -39.081100 -0.002282 -0.040193 0.051552 -0.065071 36.565100 -40.985400 0.000008 0.000006 9.062950 4.802730 -73.289600 -11.754300 -0.000006 -0.000006 -0.647919 -0.788218 -18.573000
0.000000 0.000000 0.000000 0.000000 0.000000 -0.000000 -5.036940 90.802500 0.580999 88.314900 -1.049720 4.188620 15.735700 0.000005 -0.000001 94.794500 86.143700 -97.663800 8.984550 -0.406207 -0.000000 -0.052925 0.840082 -5.734760 16.377300 -0.000001 -0.000001 4.531400 -2.989880 0.468260 6.456720 -0.000001 -0.000000 -0.366742 -2.873290 -1.421550 12.994200 -0.242716 4.980390 -90.594900 1.546460 -68.955500 5.348090 -0.000007 -0.000001 -70.924400 21.985100 -4.623350 24.328600 0.000019 0.000005 6.961260 14.069500 -26.671400 22.291600 -0.000001 0.000005 9.305290 5.210690 2.448020 12.994500 -0.242716 -4.980390 89.919600 0.384829 -78.237800 -5.348130 -0.000001 -0.000004 -29.383700 11.766700 -43.881600 -24.328900 0.000322 -0.000009 0.847350 1.457510 -30.221200 -22.291500 -0.000108 -0.000004 7.888250 5.349070 -1.118440 -2.192480 -6.469440 -0.000000 -172.015000 -8.918440 -5.212210 39.081100 -0.000007 -0.000012 -0.200958 0.348116 29.997000 40.985400 -0.000006 -0.000013 -3.307540 4.342480 -70.097200 11.754300 -0.000000 0.000003 -0.000041 -0.000472 -16.595900 -2.192510 6.469440 -0.000001 -178.529000 17.634100 174.214000 -39.081100 -0.002282 -0.040193 0.039102 -0.058364 31.527500 -40.985400 0.000008 0.000006 8.912780 7.881910 -70.508500 -11.754300 -0.000006 -0.000006 -0.585985 -0.715672 -18.716200
0.000000 0.000000 0.000000 0.000000 0.000000 -0.000000 -4.715030 91.220700 0.204322 88.162700 -1.853440 3.177990 15.735700 0.000005 -0.000001 100.230000 86.315100 -102.966000 8.984550 -0.406207 -0.000000 -0.471522 1.505140 -5.463340 16.377300 -0.000001 -0.000001 3.870420 -3.043190 0.187169 6.456720 -0.000001 -0.000000 -1.004760 -3.229600 -2.270400 12.994200 -0.242716 4.980390 -90.645300 1.635650 -68.466300 5.348090 -0.000007 -0.000001 -70.641700 22.363100 -3.364120 24.328600 0.000019 0.000005 6.959400 13.116400 -28.275000 22.291600 -0.000001 0.000005 9.444490 5.227820 2.011840 12.994500 -0.242716 -4.980390 90.547600 -2.767510 -78.801000 -5.348130 -0.000001 -0.000004 -26.812800 -10.837800 -49.517900 -24.328900 0.000322 -0.000009 -1.009830 -1.482970 -34.084300 -22.291500 -0.000108 -0.000004 22.294400 5.422880 -3.619460 -2.192480 -6.469440 -0.000000 -172.100000 -10.621000 -5.351960 39.081100 -0.000007 -0.000012 -0.170206 0.319625 28.036400 40.985400 -0.000006 -0.000013 -2.959630 5.033290 -68.879800 11.754300 -0.000000 0.000003 -0.000046 -0.000522 -16.597900 -2.192510 6.469440 -0.000001 -178.529000 19.081600 174.574000 -39.081100 -0.002282 -0.040193 0.031984 -0.052737 28.537700 -40.985400 0.000008 0.000006 9.332220 10.309000 -70.181800 -11.754300 -0.000006 -0.000006 -0.003035 -0.040994 -18.240300
